<?xml version="1.0" encoding="UTF-8"?>
<svg width="700pt" height="700pt" version="1.1" viewBox="0 0 700 700" xmlns="http://www.w3.org/2000/svg" xmlns:xlink="http://www.w3.org/1999/xlink">
 <g>
  <path fill="white" d="m278.86 354.39c1.1992 1.1992 3.1367 1.1992 4.3281 0l3.2461-3.2461c1.1914-1.1914 1.1914-3.1406 0-4.3281l-3.2461-3.2461c-1.1992-1.1992-3.1367-1.1992-4.3281 0l-3.2461 3.2461c-1.1914 1.1914-1.1992 3.1367 0 4.3281z"/>
  <path fill="white" d="m300.47 277.58h4.5938c1.6953 0 3.0703-1.3672 3.0703-3.0625v-4.5859c0-1.6953-1.3711-3.0703-3.0703-3.0703h-4.5938c-1.6914 0-3.0625 1.3711-3.0625 3.0703v4.5859c0 1.6953 1.3711 3.0625 3.0625 3.0625z"/>
  <path fill="white" d="m218.23 415.02c1.1914 1.1992 3.1367 1.1992 4.3281 0l3.2461-3.2539c1.1992-1.1914 1.1992-3.1367 0-4.3242l-3.2461-3.2461c-1.1992-1.1992-3.1406-1.1992-4.3281 0l-3.2461 3.2461c-1.2031 1.1914-1.2031 3.1367 0 4.3242z"/>
  <path fill="white" d="m300.47 320.46h4.5938c1.6953 0 3.0703-1.3672 3.0703-3.0625v-4.5859c0-1.6953-1.3711-3.0625-3.0703-3.0625h-4.5938c-1.6914 0-3.0625 1.3672-3.0625 3.0625v4.5859c0 1.6914 1.3711 3.0625 3.0625 3.0625z"/>
  <path fill="white" d="m203.07 430.18c1.1914 1.2031 3.1367 1.2031 4.3281 0l3.2461-3.2461c1.1914-1.1914 1.1992-3.1367 0-4.3242l-3.2461-3.2461c-1.1992-1.1992-3.1406-1.1992-4.3281 0l-3.2461 3.2461c-1.1914 1.1914-1.1914 3.1367 0 4.3242z"/>
  <path fill="white" d="m263.7 369.54c1.1992 1.1992 3.1367 1.1992 4.3281 0l3.2461-3.2461c1.1992-1.1992 1.1992-3.1406 0-4.3281l-3.2461-3.2461c-1.1992-1.1992-3.1367-1.1992-4.3359 0l-3.2461 3.2461c-1.1914 1.1914-1.1914 3.1367 0 4.3242z"/>
  <path fill="white" d="m294.02 339.23c1.2031 1.1992 3.1484 1.1992 4.3359 0l3.2461-3.2461c1.1914-1.1914 1.1914-3.1367 0-4.3242l-3.2461-3.2539c-1.1914-1.1992-3.1406-1.1992-4.3359 0l-3.2461 3.2422c-1.1914 1.1992-1.1914 3.1484 0 4.3359z"/>
  <path fill="white" d="m248.54 384.7c1.1914 1.1992 3.1367 1.1992 4.3281 0l3.2461-3.2539c1.1992-1.1914 1.1992-3.1367 0-4.3242l-3.2461-3.2461c-1.1992-1.1992-3.1406-1.1992-4.3281 0l-3.2461 3.2461c-1.1914 1.1914-1.1992 3.1367 0 4.3242z"/>
  <path fill="white" d="m233.39 399.86c1.1914 1.2031 3.1367 1.2031 4.3281 0l3.2461-3.2461c1.1992-1.1914 1.1992-3.1367 0-4.3242l-3.2461-3.2461c-1.1992-1.1992-3.1406-1.1992-4.3281 0l-3.2461 3.2461c-1.2031 1.1914-1.2031 3.1367 0 4.3242z"/>
  <path fill="white" d="m300.47 299.02h4.5938c1.6953 0 3.0703-1.3672 3.0703-3.0625l-0.003907-4.5898c0-1.6953-1.3711-3.0625-3.0703-3.0625h-4.5938c-1.6914 0-3.0625 1.3672-3.0625 3.0625v4.5859c0.003906 1.6992 1.375 3.0664 3.0664 3.0664z"/>
  <path fill="white" d="m300.47 256.14h4.5938c1.6953 0 3.0703-1.3711 3.0703-3.0625v-4.5938c0-1.6953-1.3711-3.0625-3.0703-3.0625h-4.5938c-1.6914 0-3.0625 1.3672-3.0625 3.0625v4.5938c0 1.6914 1.3711 3.0625 3.0625 3.0625z"/>
  <path fill="white" d="m300.47 213.27h4.5938c1.6953 0 3.0703-1.3672 3.0703-3.0586v-4.5938c0-1.6953-1.3711-3.0625-3.0703-3.0625h-4.5938c-1.6914 0-3.0625 1.3672-3.0625 3.0625v4.5938c0 1.6914 1.3711 3.0586 3.0625 3.0586z"/>
  <path fill="white" d="m300.47 191.83h4.5938c1.6953 0 3.0703-1.3672 3.0703-3.0625v-4.5859c0-1.6953-1.3711-3.0703-3.0703-3.0703h-4.5938c-1.6914 0-3.0625 1.3711-3.0625 3.0703v4.5859c0 1.6953 1.3711 3.0625 3.0625 3.0625z"/>
  <path fill="white" d="m300.47 170.39h4.5938c1.6953 0 3.0703-1.3672 3.0703-3.0586l-0.003907-4.5977c0-1.6914-1.3711-3.0625-3.0703-3.0625h-4.5938c-1.6914 0-3.0625 1.3711-3.0625 3.0625v4.5977c0.003906 1.6914 1.375 3.0586 3.0664 3.0586z"/>
  <path fill="white" d="m300.47 148.95h4.5938c1.6953 0 3.0703-1.3711 3.0703-3.0625v-4.5938c0-1.6953-1.3711-3.0625-3.0703-3.0625h-4.5938c-1.6914 0-3.0625 1.3672-3.0625 3.0625v4.5938c0 1.6914 1.3711 3.0625 3.0625 3.0625z"/>
  <path fill="white" d="m467.1 324.92c0-1.6914-1.3711-3.0625-3.0625-3.0625h-4.5938c-1.6914 0-3.0703 1.3711-3.0703 3.0625v4.5938c0 1.6914 1.3789 3.0625 3.0703 3.0625h4.5938c1.6914 0 3.0625-1.3711 3.0625-3.0625z"/>
  <path fill="white" d="m424.23 324.92c0-1.6914-1.3711-3.0625-3.0703-3.0625h-4.5938c-1.6875 0-3.0625 1.3711-3.0625 3.0625v4.5938c0 1.6914 1.3789 3.0625 3.0625 3.0625h4.5938c1.6953 0 3.0703-1.3711 3.0703-3.0625z"/>
  <path fill="white" d="m445.66 324.92c0-1.6914-1.3711-3.0625-3.0625-3.0625h-4.5977c-1.6875 0-3.0625 1.3711-3.0625 3.0625v4.5938c0 1.6914 1.3789 3.0625 3.0625 3.0625h4.5977c1.6914 0 3.0625-1.3711 3.0625-3.0625z"/>
  <path fill="white" d="m306.31 324.92v4.5938c0 1.6914 1.3672 3.0625 3.0586 3.0625h4.5977c1.6875 0 3.0625-1.3711 3.0625-3.0625v-4.5938c0-1.6914-1.3789-3.0625-3.0625-3.0625h-4.5977c-1.6914 0.007813-3.0586 1.3789-3.0586 3.0625z"/>
  <path fill="white" d="m370.63 329.52c0 1.6914 1.3711 3.0625 3.0625 3.0625h4.5938c1.6914 0 3.0625-1.3711 3.0625-3.0625v-4.5938c0-1.6914-1.3711-3.0625-3.0625-3.0625h-4.5938c-1.6914 0-3.0625 1.3711-3.0625 3.0625z"/>
  <path fill="white" d="m327.75 329.52c0 1.6914 1.3711 3.0625 3.0625 3.0625h4.5977c1.6953 0 3.0625-1.3711 3.0625-3.0625v-4.5938c0-1.6914-1.3672-3.0625-3.0625-3.0625h-4.5977c-1.6914 0-3.0625 1.3711-3.0625 3.0625z"/>
  <path fill="white" d="m349.19 329.52c0 1.6914 1.3711 3.0625 3.0625 3.0625h4.5938c1.6914 0 3.0625-1.3711 3.0625-3.0625v-4.5938c0-1.6914-1.3711-3.0625-3.0625-3.0625h-4.5938c-1.6914 0-3.0625 1.3711-3.0625 3.0625z"/>
  <path fill="white" d="m488.54 324.92c0-1.6914-1.3789-3.0625-3.0703-3.0625h-4.5938c-1.6914 0-3.0625 1.3711-3.0625 3.0625v4.5938c0 1.6914 1.3711 3.0625 3.0625 3.0625h4.5938c1.6914 0 3.0703-1.3711 3.0703-3.0625z"/>
  <path fill="white" d="m184.5 448.57h211.89c1.6875 0 4.0273-0.96875 5.2266-2.1719l114.78-114.78c1.2031-1.1992 2.1719-3.5391 2.1719-5.2305l0.003906-211.89c0-1.6914-1.3711-3.0625-3.0625-3.0625h-211.89c-1.6875 0-4.0312 0.96875-5.2266 2.168l-114.79 114.79c-1.1914 1.1992-2.168 3.5391-2.168 5.2305v211.88c0 1.6875 1.3789 3.0664 3.0625 3.0664zm218.09-21.371v-96.609c0.11719-0.33984 0.19531-0.6875 0.19531-1.0625v-4.5938c0-0.375-0.078125-0.72656-0.19531-1.0625v-12.863h91.66c1.5078 0 2.7266-1.2227 2.7266-2.7227v-167.69l8.7031-8.6953c1.1992-1.1992 2.1602-0.79688 2.1602 0.89453v189.14l-0.003906 0.078125c-0.28516-0.089844-0.59375-0.15234-0.91406-0.15234h-4.6016c-1.6953 0-3.0625 1.3711-3.0625 3.0625v4.5938c0 1.1016 0.58203 2.0664 1.4688 2.6055l-95.98 95.973c-1.1914 1.1953-2.1562 0.79297-2.1562-0.89844zm-200.69-201.95 97.832-97.832c0.24609 0.054687 0.49219 0.10156 0.74609 0.10156h4.5938c1.6953 0 3.0703-1.3711 3.0703-3.0625v-2.2969h189.06c1.6953 0 2.0938 0.96875 0.89453 2.1602l-8.8828 8.8828-170.22-0.17969v94.395h-10.859v-0.35938c0-1.6953-1.3711-3.0625-3.0703-3.0625h-4.5938c-1.6914 0-3.0625 1.3672-3.0625 3.0625v0.35938l-94.617-0.003907c-1.6914-0.003906-2.0859-0.96875-0.89453-2.1641zm-6.6875 12.879h123.78v70.141c0 1.5078 1.2227 2.7227 2.7344 2.7227h70.129v123.79c0 1.6914-1.3672 3.0586-3.0625 3.0586l-193.25-0.003906-0.066406-0.078125-3.2461-3.2461-0.078125-0.066406v-193.26c0-1.6797 1.3711-3.0625 3.0547-3.0625z"/>
   </g>
</svg>
