<?xml version="1.0" encoding="UTF-8"?>
<svg width="700pt" height="700pt" version="1.1" viewBox="0 0 700 700" xmlns="http://www.w3.org/2000/svg" xmlns:xlink="http://www.w3.org/1999/xlink">
 <g>
  <path fill="white" d="m300.47 299.02h4.5938c1.6953 0 3.0625-1.3672 3.0625-3.0625v-4.5898c0-1.6953-1.3672-3.0625-3.0625-3.0625h-4.5938c-1.6914 0-3.0586 1.3672-3.0586 3.0625v4.5859c0 1.6992 1.3672 3.0664 3.0586 3.0664z"/>
  <path fill="white" d="m300.47 277.58h4.5938c1.6953 0 3.0625-1.3672 3.0625-3.0625v-4.5859c0-1.6953-1.3672-3.0703-3.0625-3.0703h-4.5938c-1.6914 0-3.0586 1.3711-3.0586 3.0703v4.5859c0 1.6953 1.3672 3.0625 3.0586 3.0625z"/>
  <path fill="white" d="m300.47 170.39h4.5938c1.6953 0 3.0625-1.3672 3.0625-3.0586v-4.5977c0-1.6914-1.3672-3.0625-3.0625-3.0625h-4.5938c-1.6914 0-3.0586 1.3711-3.0586 3.0625v4.5977c0 1.6914 1.3672 3.0586 3.0586 3.0586z"/>
  <path fill="white" d="m300.47 256.14h4.5938c1.6953 0 3.0625-1.3711 3.0625-3.0625v-4.5938c0-1.6953-1.3672-3.0625-3.0625-3.0625h-4.5938c-1.6914 0-3.0586 1.3672-3.0586 3.0625v4.5938c0 1.6914 1.3672 3.0625 3.0586 3.0625z"/>
  <path fill="white" d="m300.47 213.27h4.5938c1.6953 0 3.0625-1.3672 3.0625-3.0586v-4.5938c0-1.6953-1.3672-3.0625-3.0625-3.0625h-4.5938c-1.6914 0-3.0586 1.3672-3.0586 3.0625v4.5938c0 1.6914 1.3672 3.0586 3.0586 3.0586z"/>
  <path fill="white" d="m300.47 191.83h4.5938c1.6953 0 3.0625-1.3672 3.0625-3.0625v-4.5859c0-1.6953-1.3672-3.0703-3.0625-3.0703h-4.5938c-1.6914 0-3.0586 1.3711-3.0586 3.0703v4.5859c0 1.6953 1.3672 3.0625 3.0586 3.0625z"/>
  <path fill="white" d="m300.47 320.46h4.5938c1.6953 0 3.0625-1.3672 3.0625-3.0625v-4.5859c0-1.6953-1.3672-3.0625-3.0625-3.0625h-4.5938c-1.6914 0-3.0586 1.3672-3.0586 3.0625v4.5859c0 1.6914 1.3672 3.0625 3.0586 3.0625z"/>
  <path fill="white" d="m218.22 415.02c1.1992 1.1992 3.1406 1.1992 4.3281 0l3.2461-3.2539c1.1992-1.1914 1.1992-3.1367 0-4.3242l-3.2539-3.2461c-1.1914-1.1992-3.1367-1.1992-4.3242 0l-3.2461 3.2461c-1.1992 1.1914-1.1992 3.1367 0 4.3242z"/>
  <path fill="white" d="m233.38 399.86c1.1992 1.2031 3.1406 1.2031 4.3281 0l3.2461-3.2461c1.1992-1.1914 1.1992-3.1367 0-4.3242l-3.2461-3.2461c-1.1992-1.1992-3.1406-1.1992-4.3281 0l-3.2461 3.2461c-1.1992 1.1914-1.1992 3.1367 0 4.3242z"/>
  <path fill="white" d="m203.06 430.18c1.1992 1.2031 3.1367 1.2031 4.3242 0l3.2539-3.2461c1.1992-1.1914 1.1992-3.1367 0-4.3242l-3.2539-3.2461c-1.1914-1.1992-3.1289-1.1992-4.3242 0l-3.2461 3.2461c-1.1992 1.1914-1.1992 3.1367 0 4.3242z"/>
  <path fill="white" d="m300.47 148.95h4.5938c1.6953 0 3.0625-1.3711 3.0625-3.0625v-4.5938c0-1.6953-1.3672-3.0625-3.0625-3.0625h-4.5938c-1.6914 0-3.0586 1.3672-3.0586 3.0625v4.5938c0 1.6914 1.3672 3.0625 3.0586 3.0625z"/>
  <path fill="white" d="m278.86 354.39c1.1992 1.1992 3.1367 1.1992 4.3281 0l3.2461-3.2461c1.1992-1.1914 1.1992-3.1406 0-4.3281l-3.2461-3.2461c-1.1992-1.1992-3.1367-1.1992-4.3281 0l-3.2461 3.2461c-1.1914 1.1914-1.1914 3.1367 0 4.3281z"/>
  <path fill="white" d="m248.54 384.7c1.1914 1.1992 3.1367 1.1992 4.3281 0l3.2461-3.2539c1.1992-1.1914 1.1992-3.1367 0-4.3242l-3.2461-3.2461c-1.1992-1.1992-3.1406-1.1992-4.3281 0l-3.2461 3.2461c-1.1914 1.1914-1.1914 3.1367 0 4.3242z"/>
  <path fill="white" d="m294.02 339.23c1.1992 1.1992 3.1367 1.1992 4.3281 0l3.2461-3.2461c1.1992-1.1914 1.1992-3.1367 0-4.3242l-3.2461-3.2539c-1.1992-1.1992-3.1367-1.1992-4.3281 0l-3.2461 3.2422c-1.1992 1.1992-1.1992 3.1484 0 4.3359z"/>
  <path fill="white" d="m263.7 369.54c1.1914 1.1992 3.1367 1.1992 4.3281 0l3.2461-3.2461c1.1992-1.1992 1.1992-3.1406 0-4.3281l-3.2461-3.2461c-1.1992-1.1992-3.1406-1.1992-4.3281 0l-3.2461 3.2461c-1.2031 1.1914-1.2031 3.1367 0 4.3242z"/>
  <path fill="white" d="m370.62 329.52c0 1.6914 1.3711 3.0625 3.0625 3.0625h4.5938c1.6953 0 3.0625-1.3711 3.0625-3.0625v-4.5938c0-1.6914-1.3672-3.0625-3.0625-3.0625h-4.5938c-1.6914 0-3.0625 1.3711-3.0625 3.0625z"/>
  <path fill="white" d="m467.1 324.92c0-1.6914-1.3672-3.0625-3.0625-3.0625h-4.5938c-1.6914 0-3.0703 1.3711-3.0703 3.0625v4.5938c0 1.6914 1.3789 3.0625 3.0703 3.0625h4.5938c1.6953 0 3.0625-1.3711 3.0625-3.0625z"/>
  <path fill="white" d="m488.54 324.92c0-1.6914-1.3711-3.0625-3.0625-3.0625h-4.5938c-1.6914 0-3.0586 1.3711-3.0586 3.0625v4.5938c0 1.6914 1.3672 3.0625 3.0586 3.0625h4.5938c1.6914 0 3.0625-1.3711 3.0625-3.0625z"/>
  <path fill="white" d="m349.19 329.52c0 1.6914 1.3672 3.0625 3.0625 3.0625h4.5938c1.6953 0 3.0625-1.3711 3.0625-3.0625v-4.5938c0-1.6914-1.3672-3.0625-3.0625-3.0625h-4.5938c-1.6953 0-3.0625 1.3711-3.0625 3.0625z"/>
  <path fill="white" d="m424.22 324.92c0-1.6914-1.3672-3.0625-3.0625-3.0625h-4.5938c-1.6914 0-3.0625 1.3711-3.0625 3.0625v4.5938c0 1.6914 1.3711 3.0625 3.0625 3.0625h4.5938c1.6953 0 3.0625-1.3711 3.0625-3.0625z"/>
  <path fill="white" d="m306.31 324.92v4.5938c0 1.6914 1.3672 3.0625 3.0625 3.0625h4.5859c1.6953 0 3.0625-1.3711 3.0625-3.0625v-4.5938c0-1.6914-1.3672-3.0625-3.0625-3.0625h-4.5859c-1.6953 0.007813-3.0625 1.3789-3.0625 3.0625z"/>
  <path fill="white" d="m445.66 324.92c0-1.6914-1.3711-3.0625-3.0625-3.0625h-4.5977c-1.6875 0-3.0586 1.3711-3.0586 3.0625v4.5938c0 1.6914 1.3711 3.0625 3.0586 3.0625h4.5977c1.6914 0 3.0625-1.3711 3.0625-3.0625z"/>
  <path fill="white" d="m327.75 329.52c0 1.6914 1.3672 3.0625 3.0586 3.0625h4.5977c1.6914 0 3.0625-1.3711 3.0625-3.0625v-4.5938c0-1.6914-1.3711-3.0625-3.0625-3.0625h-4.5977c-1.6914 0-3.0586 1.3711-3.0586 3.0625z"/>
  <path fill="white" d="m184.5 448.57h211.88c1.6953 0 4.0312-0.96875 5.2344-2.1719l114.78-114.78c1.1992-1.1992 2.168-3.5391 2.168-5.2305l0.003906-211.89c0-1.6914-1.3711-3.0625-3.0625-3.0625h-211.89c-1.6953 0-4.0391 0.96875-5.2305 2.168l-114.78 114.79c-1.1992 1.1992-2.1602 3.5391-2.1602 5.2305v211.88c0 1.6875 1.3633 3.0664 3.0547 3.0664zm218.09-21.371v-9.2461l76.844-76.836c1.043-1.0469 0.6875-1.8945-0.78906-1.8945h-76.055v-8.6367c0.11719-0.33984 0.19531-0.6875 0.19531-1.0625v-4.5938c0-0.375-0.078125-0.72656-0.19531-1.0625v-85.809c0-1.6914 0.96875-4.0391 2.168-5.2305l100.92-100.92c1.1914-1.1992 2.168-0.79688 2.168 0.89453v189.14l-0.003906 0.078125c-0.29688-0.089844-0.59375-0.15234-0.92578-0.15234l-4.5938 0.003907c-1.6914 0-3.0625 1.3711-3.0625 3.0625v4.5938c0 1.1016 0.58984 2.0664 1.4688 2.6055l-95.977 95.965c-1.1953 1.1953-2.1641 0.79297-2.1641-0.89844zm-200.69-201.95 97.836-97.832c0.24219 0.054687 0.48047 0.10156 0.73828 0.10156h4.5938c1.6953 0 3.0625-1.3711 3.0625-3.0625v-2.2969h189.07c1.6914 0 2.0938 0.96875 0.89453 2.1602l-100.93 100.93c-1.1914 1.1992-3.5352 2.168-5.2305 2.168l-83.805-0.003907v-0.35937c0-1.6953-1.3672-3.0625-3.0625-3.0625h-4.5938c-1.6914 0-3.0586 1.3672-3.0586 3.0625v0.35937h-94.621c-1.6875-0.003906-2.0898-0.96875-0.89453-2.1641zm-6.6758 12.879h193.58c1.6914 0 3.0625 1.3789 3.0625 3.0625v98.027h-78.523c-1.4766 0-3.5234 0.84375-4.5586 1.8945l-88.207 88.199c-1.0547 1.0469-0.69531 1.8945 0.78516 1.8945h165.3c1.4844 0 3.5273-0.84375 4.5703-1.8945l0.64453-0.64844v6.1211c0 1.6914-1.3711 3.0586-3.0625 3.0586h-193.26l-0.066407-0.078125-3.2461-3.2461-0.085938-0.066406-0.003906-193.26c0-1.6797 1.3789-3.0625 3.0703-3.0625z"/>
 </g>
</svg>
