<?xml version="1.0" encoding="UTF-8"?>
<svg width="700pt" height="700pt" version="1.1" viewBox="0 0 700 700" xmlns="http://www.w3.org/2000/svg" xmlns:xlink="http://www.w3.org/1999/xlink">
 <g>
  <path fill="white" d="m300.48 148.95h4.5938c1.6914 0 3.0625-1.3711 3.0625-3.0625v-4.5938c0-1.6953-1.3711-3.0625-3.0625-3.0625h-4.5938c-1.6914 0-3.0625 1.3672-3.0625 3.0625v4.5938c-0.003907 1.6914 1.3711 3.0625 3.0625 3.0625z"/>
  <path fill="white" d="m300.48 191.83h4.5938c1.6914 0 3.0625-1.3672 3.0625-3.0625v-4.5859c0-1.6953-1.3711-3.0703-3.0625-3.0703h-4.5938c-1.6914 0-3.0625 1.3711-3.0625 3.0703v4.5859c-0.003907 1.6953 1.3711 3.0625 3.0625 3.0625z"/>
  <path fill="white" d="m300.48 213.27h4.5938c1.6914 0 3.0625-1.3672 3.0625-3.0586v-4.5938c0-1.6953-1.3711-3.0625-3.0625-3.0625h-4.5938c-1.6914 0-3.0625 1.3672-3.0625 3.0625v4.5938c-0.003907 1.6914 1.3711 3.0586 3.0625 3.0586z"/>
  <path fill="white" d="m300.48 170.39h4.5938c1.6914 0 3.0625-1.3672 3.0625-3.0586l-0.003907-4.5977c0-1.6914-1.3711-3.0625-3.0625-3.0625h-4.5938c-1.6914 0-3.0625 1.3711-3.0625 3.0625v4.5977c0 1.6914 1.375 3.0586 3.0664 3.0586z"/>
  <path fill="white" d="m445.66 324.92c0-1.6914-1.3672-3.0625-3.0625-3.0625h-4.5938c-1.6914 0-3.0586 1.3711-3.0586 3.0625v4.5938c0 1.6914 1.3672 3.0625 3.0586 3.0625h4.5938c1.6953 0 3.0625-1.3711 3.0625-3.0625z"/>
  <path fill="white" d="m424.22 324.92c0-1.6914-1.3711-3.0625-3.0625-3.0625h-4.5938c-1.6914 0-3.0625 1.3711-3.0625 3.0625v4.5938c0 1.6914 1.3711 3.0625 3.0625 3.0625h4.5938c1.6914 0 3.0625-1.3711 3.0625-3.0625z"/>
  <path fill="white" d="m467.1 324.92c0-1.6914-1.3711-3.0625-3.0625-3.0625h-4.5859c-1.6953 0-3.0625 1.3711-3.0625 3.0625v4.5938c0 1.6914 1.3672 3.0625 3.0625 3.0625h4.5859c1.6914 0 3.0625-1.3711 3.0625-3.0625z"/>
  <path fill="white" d="m488.54 324.92c0-1.6914-1.3789-3.0625-3.0703-3.0625h-4.5938c-1.6914 0-3.0586 1.3711-3.0586 3.0625v4.5938c0 1.6914 1.3672 3.0625 3.0586 3.0625h4.5938c1.6914 0 3.0703-1.3711 3.0703-3.0625z"/>
  <path fill="white" d="m384.21 248.46c0-1.4844-1.2031-2.6836-2.6836-2.6836l-75.051 0.003906c-0.42578-0.22266-0.90234-0.35938-1.4102-0.35938h-4.5938c-0.50781 0-0.98047 0.13281-1.4102 0.35938h-96.57c-1.4844 0-2.6836 1.1992-2.6836 2.6836v174.14c-1.1797 1.1914-1.1797 3.125 0 4.3164v0.57812c0 1.4883 1.2031 2.6836 2.6836 2.6836h0.58203c1.1914 1.1875 3.125 1.1875 4.3164 0l174.13-0.003906c1.4844 0 2.6836-1.1992 2.6836-2.6836v-179.04z"/>
  <path fill="white" d="m184.5 448.57h211.88c1.6953 0 4.0391-0.96875 5.2305-2.1719l114.79-114.78c1.1914-1.1992 2.1602-3.5391 2.1602-5.2305v-211.89c0-1.6914-1.3672-3.0625-3.0586-3.0625h-211.89c-1.6953 0-4.0469 0.95312-5.2578 2.1328l-114.73 111.71c-1.2109 1.1797-2.1953 3.5117-2.1953 5.2031v215.02c0 1.6875 1.3633 3.0664 3.0625 3.0664zm204.3-10.727h-193.26l-0.066407-0.078125-3.2422-3.2461-0.085937-0.066406 0.003906-193.26c0-1.6875 1.3711-3.0625 3.0625-3.0625h193.58c1.6914 0 3.0625 1.3789 3.0625 3.0625v193.59c0.007813 1.6836-1.3672 3.0547-3.0586 3.0547zm13.785-10.645v-96.609c0.125-0.33984 0.20312-0.6875 0.20312-1.0625v-4.5938c0-0.375-0.078124-0.72656-0.20312-1.0625v-85.812c0-1.6914 0.97266-4.0391 2.168-5.2305l100.92-100.92c1.2031-1.1992 2.1719-0.79688 2.1719 0.89453v189.14l-0.011718 0.078125c-0.29297-0.089844-0.59375-0.15234-0.91797-0.15234h-4.5938c-1.6953 0-3.0625 1.3711-3.0625 3.0625v4.5938c0 1.1016 0.58203 2.0664 1.4609 2.6055l-95.973 95.969c-1.1914 1.1953-2.1641 0.79297-2.1641-0.89844zm-203.08-201.93 100.13-97.883c0.26953 0.074219 0.54688 0.125 0.83594 0.125h4.5938c1.6914 0 3.0625-1.3711 3.0625-3.0625v-2.2969h189.07c1.6953 0 2.0938 0.96875 0.90234 2.1602l-100.93 100.94c-1.1992 1.1992-3.5391 2.168-5.2305 2.168l-83.805-0.003907v-0.35937c0-1.6953-1.3711-3.0625-3.0625-3.0625h-4.5938c-1.6914 0-3.0625 1.3672-3.0625 3.0625v0.35937h-97.027c-1.6875-0.003906-2.0781-0.96094-0.88281-2.1445z"/>
 </g>
</svg>
