<?xml version="1.0" encoding="UTF-8"?>
<svg width="700pt" height="700pt" version="1.1" viewBox="0 0 700 700" xmlns="http://www.w3.org/2000/svg" xmlns:xlink="http://www.w3.org/1999/xlink">
 <g>
  <path fill="white" d="m248.55 384.7c1.1914 1.1992 3.1367 1.1992 4.3242 0l3.2461-3.2539c1.1992-1.1914 1.1992-3.1367 0-4.3242l-3.2461-3.2461c-1.1914-1.1992-3.1367-1.1992-4.3242 0l-3.2539 3.2461c-1.1992 1.1914-1.1992 3.1367 0 4.3242z"/>
  <path fill="white" d="m263.71 369.54c1.1914 1.1992 3.1367 1.1992 4.3242 0l3.2461-3.2461c1.1992-1.1992 1.1992-3.1406 0-4.3281l-3.2461-3.2461c-1.1914-1.1992-3.1367-1.1992-4.3281 0l-3.2461 3.2461c-1.1992 1.1914-1.1992 3.1367 0 4.3242z"/>
  <path fill="white" d="m300.48 213.27h4.5938c1.6953 0 3.0625-1.3672 3.0625-3.0586v-4.5938c0-1.6953-1.3672-3.0625-3.0625-3.0625h-4.5938c-1.6914 0-3.0703 1.3672-3.0703 3.0625v4.5938c0 1.6914 1.3789 3.0586 3.0703 3.0586z"/>
  <path fill="white" d="m278.87 354.39c1.1914 1.1992 3.1367 1.1992 4.3242 0l3.2461-3.2461c1.1992-1.1914 1.1992-3.1406 0-4.3281l-3.2461-3.2461c-1.1914-1.1992-3.1406-1.1992-4.3242 0l-3.2539 3.2461c-1.1992 1.1914-1.1992 3.1367 0 4.3281z"/>
  <path fill="white" d="m300.48 148.95h4.5938c1.6953 0 3.0625-1.3711 3.0625-3.0625v-4.5938c0-1.6953-1.3672-3.0625-3.0625-3.0625h-4.5938c-1.6914 0-3.0703 1.3672-3.0703 3.0625v4.5938c0 1.6914 1.3789 3.0625 3.0703 3.0625z"/>
  <path fill="white" d="m300.48 191.83h4.5938c1.6953 0 3.0625-1.3672 3.0625-3.0625v-4.5859c0-1.6953-1.3672-3.0703-3.0625-3.0703h-4.5938c-1.6914 0-3.0703 1.3711-3.0703 3.0703v4.5859c0 1.6953 1.3789 3.0625 3.0703 3.0625z"/>
  <path fill="white" d="m300.48 170.39h4.5938c1.6953 0 3.0625-1.3672 3.0625-3.0586l-0.003907-4.5977c0-1.6914-1.3672-3.0625-3.0625-3.0625h-4.5938c-1.6914 0-3.0703 1.3711-3.0703 3.0625v4.5977c0.003906 1.6914 1.3828 3.0586 3.0742 3.0586z"/>
  <path fill="white" d="m233.39 399.86c1.1992 1.2031 3.1406 1.2031 4.3281 0l3.2539-3.2461c1.1914-1.1914 1.1914-3.1367 0-4.3242l-3.2539-3.2461c-1.1914-1.1992-3.1367-1.1992-4.3281 0l-3.2422 3.2461c-1.2031 1.1914-1.2031 3.1367 0 4.3242z"/>
  <path fill="white" d="m300.48 299.02h4.5938c1.6953 0 3.0625-1.3672 3.0625-3.0625l-0.003907-4.5898c0-1.6953-1.3672-3.0625-3.0625-3.0625h-4.5938c-1.6914 0-3.0703 1.3672-3.0703 3.0625v4.5859c0.003906 1.6992 1.3828 3.0664 3.0742 3.0664z"/>
  <path fill="white" d="m300.48 320.46h4.5938c1.6953 0 3.0625-1.3672 3.0625-3.0625v-4.5859c0-1.6953-1.3672-3.0625-3.0625-3.0625h-4.5938c-1.6914 0-3.0703 1.3672-3.0703 3.0625v4.5859c0 1.6914 1.3789 3.0625 3.0703 3.0625z"/>
  <path fill="white" d="m300.48 277.58h4.5938c1.6953 0 3.0625-1.3672 3.0625-3.0625v-4.5859c0-1.6953-1.3672-3.0703-3.0625-3.0703h-4.5938c-1.6914 0-3.0703 1.3711-3.0703 3.0703v4.5859c0 1.6953 1.3789 3.0625 3.0703 3.0625z"/>
  <path fill="white" d="m203.07 430.18c1.1992 1.2031 3.1406 1.2031 4.3281 0l3.2461-3.2461c1.1914-1.1914 1.1914-3.1367 0-4.3242l-3.2461-3.2461c-1.1914-1.1992-3.1367-1.1992-4.3281 0l-3.2461 3.2461c-1.1914 1.1914-1.1914 3.1367 0 4.3242z"/>
  <path fill="white" d="m294.03 339.23c1.1914 1.1992 3.1367 1.1992 4.3242 0l3.2461-3.2461c1.1992-1.1914 1.1992-3.1367 0-4.3242l-3.2539-3.2539c-1.1914-1.1992-3.1289-1.1992-4.3242 0l-3.2461 3.2422c-1.1992 1.1992-1.1992 3.1484 0 4.3359z"/>
  <path fill="white" d="m300.48 256.14h4.5938c1.6953 0 3.0625-1.3711 3.0625-3.0625v-4.5938c0-1.6953-1.3672-3.0625-3.0625-3.0625h-4.5938c-1.6914 0-3.0703 1.3672-3.0703 3.0625v4.5938c0 1.6914 1.3789 3.0625 3.0703 3.0625z"/>
  <path fill="white" d="m218.23 415.02c1.1992 1.1992 3.1406 1.1992 4.3281 0l3.2461-3.2539c1.1914-1.1914 1.1914-3.1367 0-4.3242l-3.2461-3.2461c-1.1914-1.1992-3.1367-1.1992-4.3281 0l-3.2461 3.2461c-1.1992 1.1914-1.1992 3.1367 0 4.3242z"/>
  <path fill="white" d="m332.35 329.52c0 1.6914 1.3672 3.0625 3.0625 3.0625h4.5938c1.6914 0 3.0625-1.3711 3.0625-3.0625v-4.5938c0-1.6914-1.3711-3.0625-3.0625-3.0625h-4.5938c-1.6953 0-3.0625 1.3711-3.0625 3.0625z"/>
  <path fill="white" d="m313.97 332.59h4.5938c1.6914 0 3.0625-1.3711 3.0625-3.0625v-4.5938c0-1.6914-1.3711-3.0625-3.0625-3.0625h-4.5938c-1.6953 0-3.0625 1.3711-3.0625 3.0625v4.5938c0.003906 1.6875 1.3711 3.0625 3.0625 3.0625z"/>
  <path fill="white" d="m353.79 329.52c0 1.6914 1.3672 3.0625 3.0625 3.0625h4.5977c1.6914 0 3.0625-1.3711 3.0625-3.0625v-4.5938c0-1.6914-1.3711-3.0625-3.0625-3.0625h-4.5977c-1.6953 0-3.0625 1.3711-3.0625 3.0625z"/>
  <path fill="white" d="m450.26 324.92c0-1.6914-1.3711-3.0625-3.0586-3.0625h-4.5977c-1.6953 0-3.0625 1.3711-3.0625 3.0625v4.5938c0 1.6914 1.3672 3.0625 3.0625 3.0625h4.5977c1.6875 0 3.0586-1.3711 3.0586-3.0625z"/>
  <path fill="white" d="m471.7 324.92c0-1.6914-1.3672-3.0625-3.0625-3.0625h-4.5859c-1.6953 0-3.0703 1.3711-3.0703 3.0625v4.5938c0 1.6914 1.3711 3.0625 3.0703 3.0625h4.5859c1.6953 0 3.0625-1.3711 3.0625-3.0625z"/>
  <path fill="white" d="m428.81 324.92c0-1.6914-1.3672-3.0625-3.0625-3.0625h-4.5859c-1.6953 0-3.0625 1.3711-3.0625 3.0625v4.5938c0 1.6914 1.3672 3.0625 3.0625 3.0625h4.5859c1.6953 0 3.0625-1.3711 3.0625-3.0625z"/>
  <path fill="white" d="m493.14 324.92c0-1.6914-1.3711-3.0625-3.0586-3.0625h-4.5938c-1.6953 0-3.0625 1.3711-3.0625 3.0625v4.5938c0 1.6914 1.3672 3.0625 3.0625 3.0625h4.5938c1.6875 0 3.0586-1.3711 3.0586-3.0625z"/>
  <path fill="white" d="m375.22 329.52c0 1.6914 1.3711 3.0625 3.0703 3.0625h4.5938c1.6914 0 3.0586-1.3711 3.0586-3.0625v-4.5938c0-1.6914-1.3672-3.0625-3.0586-3.0625h-4.5938c-1.6953 0-3.0703 1.3711-3.0703 3.0625z"/>
  <path fill="white" d="m184.5 448.57h211.88c1.6914 0 4.0312-0.96875 5.2305-2.1719l114.78-114.78c1.1992-1.1992 2.168-3.5391 2.168-5.2305v-211.89c0-1.6914-1.3711-3.0625-3.0625-3.0625h-211.88c-1.6914 0-4.0312 0.96875-5.2305 2.168l-114.79 114.79c-1.2031 1.1992-2.1719 3.5391-2.1719 5.2305v211.88c0 1.6875 1.3828 3.0664 3.0703 3.0664zm218.09-21.371v-94.609h1.7344c1.6914 0 3.0625-1.3711 3.0625-3.0625v-4.5938c0-1.6914-1.3711-3.0625-3.0625-3.0625h-1.7344v-83.812c0-1.6914 0.96875-4.0391 2.168-5.2305l100.93-100.92c1.1914-1.1992 2.1602-0.79688 2.1602 0.89453v189.14c0 1.6953-0.96875 4.0391-2.1602 5.2305l-100.94 100.93c-1.1953 1.1953-2.1602 0.79297-2.1602-0.89844zm-200.68-201.95 97.836-97.832c0.23437 0.054687 0.48047 0.10156 0.73828 0.10156h4.5938c1.6953 0 3.0625-1.3711 3.0625-3.0625v-2.2969h189.07c1.6914 0 2.0938 0.96875 0.89453 2.1602l-100.92 100.93c-1.1914 1.1992-3.5391 2.168-5.2305 2.168l-83.812-0.003907v-0.35937c0-1.6953-1.3672-3.0625-3.0625-3.0625h-4.5938c-1.6914 0-3.0703 1.3672-3.0703 3.0625v0.35937h-10.215l0.003906-66.516c0-1.3711-0.78906-1.6953-1.7539-0.72656l-67.238 67.238h-15.398c-1.6914 0-2.0938-0.96484-0.89844-2.1602zm-9.7461 15.941c0-1.6875 1.3672-3.0625 3.0625-3.0625h12.266l-3.7031 3.7031c-0.96875 0.96875-1.7539 2.8633-1.7539 4.2266v153.04c0 1.3711 0.79688 1.7031 1.7695 0.74609l81.613-79.906c0.98047-0.95703 1.7695-2.8398 1.7695-4.2109v-77.594h101.62c1.6875 0 3.0625 1.3789 3.0625 3.0625v193.59c0 1.6914-1.3789 3.0586-3.0625 3.0586l-193.59-0.003906c-1.6953 0-3.0625-1.3672-3.0625-3.0586z"/>
 </g>
</svg>
