<?xml version="1.0" encoding="UTF-8"?>
<svg width="700pt" height="700pt" version="1.1" viewBox="0 0 700 700" xmlns="http://www.w3.org/2000/svg" xmlns:xlink="http://www.w3.org/1999/xlink">
 <g>
  <path fill="white" d="m184.5 448.57h211.89c1.6914 0 4.0312-0.96875 5.2305-2.1719l114.78-114.78c1.1992-1.1992 2.168-3.5391 2.168-5.2305l0.003906-211.89c0-1.6914-1.3672-3.0625-3.0625-3.0625h-211.88c-1.6914 0-4.0312 0.96875-5.2305 2.168l-114.79 114.79c-1.1992 1.1992-2.1719 3.5391-2.1719 5.2305v211.88c0 1.6875 1.3789 3.0664 3.0625 3.0664zm323.36-126.63c0 1.6953-0.97266 4.0391-2.1719 5.2305l-100.93 100.93c-1.1914 1.1992-2.168 0.79688-2.168-0.89453l0.003907-96.613c0.125-0.33984 0.20312-0.6875 0.20312-1.0625v-4.5938c0-0.375-0.078124-0.72656-0.20312-1.0625v-85.812c0-1.6914 0.97266-4.0391 2.168-5.2305l100.93-100.92c1.1992-1.1992 2.1719-0.79688 2.1719 0.89453zm-305.95-96.688 100.92-100.93c1.1914-1.1914 3.5352-2.1602 5.2305-2.1602h189.14c1.6953 0 2.0898 0.96875 0.89453 2.1602l-100.92 100.93c-1.1992 1.1992-3.5391 2.168-5.2344 2.168l-83.809-0.003907v-0.35937c0-1.6953-1.3672-3.0625-3.0625-3.0625h-4.5938c-1.6914 0-3.0703 1.3672-3.0703 3.0625v0.35937h-94.602c-1.6914-0.003906-2.0938-0.96875-0.89844-2.1641zm-9.7461 15.941c0-1.6875 1.3672-3.0625 3.0625-3.0625h193.59c1.6914 0 3.0625 1.3789 3.0625 3.0625v193.59c0 1.6914-1.3711 3.0586-3.0625 3.0586l-193.59-0.003906c-1.6953 0-3.0625-1.3672-3.0625-3.0586z"/>
  <path fill="white" d="m218.23 415.02c1.1992 1.1992 3.1367 1.1992 4.3359 0l3.2461-3.2539c1.1914-1.1914 1.1914-3.1367 0-4.3242l-3.2539-3.2461c-1.1992-1.1992-3.1367-1.1992-4.3281 0l-3.2461 3.2461c-1.1914 1.1914-1.1914 3.1367 0 4.3242z"/>
  <path fill="white" d="m203.07 430.18c1.1992 1.2031 3.1367 1.2031 4.3281 0l3.2539-3.2461c1.1914-1.1914 1.1914-3.1367 0-4.3242l-3.2539-3.2461c-1.1992-1.1992-3.1367-1.1992-4.3281 0l-3.2461 3.2461c-1.1914 1.1914-1.1914 3.1367 0 4.3242z"/>
  <path fill="white" d="m300.48 191.83h4.5938c1.6953 0 3.0625-1.3672 3.0625-3.0625v-4.5859c0-1.6953-1.3672-3.0703-3.0625-3.0703h-4.5938c-1.6914 0-3.0703 1.3711-3.0703 3.0703v4.5859c0 1.6953 1.3789 3.0625 3.0703 3.0625z"/>
  <path fill="white" d="m300.48 256.14h4.5938c1.6953 0 3.0625-1.3711 3.0625-3.0625v-4.5938c0-1.6953-1.3672-3.0625-3.0625-3.0625h-4.5938c-1.6914 0-3.0703 1.3672-3.0703 3.0625v4.5938c0 1.6914 1.3789 3.0625 3.0703 3.0625z"/>
  <path fill="white" d="m233.39 399.86c1.1992 1.2031 3.1406 1.2031 4.3359 0l3.2461-3.2461c1.1914-1.1914 1.1914-3.1367 0-4.3242l-3.2539-3.2461c-1.1914-1.1992-3.1367-1.1992-4.3281 0l-3.2461 3.2461c-1.1914 1.1914-1.1914 3.1367 0 4.3242z"/>
  <path fill="white" d="m300.48 170.39h4.5938c1.6953 0 3.0625-1.3672 3.0625-3.0586l-0.003907-4.5977c0-1.6914-1.3672-3.0625-3.0625-3.0625h-4.5938c-1.6914 0-3.0703 1.3711-3.0703 3.0625v4.5977c0.003906 1.6914 1.3828 3.0586 3.0742 3.0586z"/>
  <path fill="white" d="m300.48 277.58h4.5938c1.6953 0 3.0625-1.3672 3.0625-3.0625v-4.5859c0-1.6953-1.3672-3.0703-3.0625-3.0703h-4.5938c-1.6914 0-3.0703 1.3711-3.0703 3.0703v4.5859c0 1.6953 1.3789 3.0625 3.0703 3.0625z"/>
  <path fill="white" d="m300.48 148.95h4.5938c1.6953 0 3.0625-1.3711 3.0625-3.0625v-4.5938c0-1.6953-1.3672-3.0625-3.0625-3.0625h-4.5938c-1.6914 0-3.0703 1.3672-3.0703 3.0625v4.5938c0 1.6914 1.3789 3.0625 3.0703 3.0625z"/>
  <path fill="white" d="m300.48 213.27h4.5938c1.6953 0 3.0625-1.3672 3.0625-3.0586v-4.5938c0-1.6953-1.3672-3.0625-3.0625-3.0625h-4.5938c-1.6914 0-3.0703 1.3672-3.0703 3.0625v4.5938c0 1.6914 1.3789 3.0586 3.0703 3.0586z"/>
  <path fill="white" d="m263.7 369.54c1.1992 1.1992 3.1406 1.1992 4.3281 0l3.2539-3.2461c1.1992-1.1992 1.1992-3.1406 0-4.3281l-3.2539-3.2461c-1.1914-1.1992-3.1367-1.1992-4.3281 0l-3.2461 3.2461c-1.1914 1.1914-1.1914 3.1367 0 4.3242z"/>
  <path fill="white" d="m248.54 384.7c1.1992 1.1992 3.1406 1.1992 4.3281 0l3.2461-3.2539c1.2031-1.1914 1.2031-3.1367 0-4.3242l-3.2461-3.2461c-1.1914-1.1992-3.1367-1.1992-4.3281 0l-3.2461 3.2461c-1.1914 1.1914-1.1914 3.1367 0 4.3242z"/>
  <path fill="white" d="m278.86 354.39c1.1992 1.1992 3.1406 1.1992 4.3281 0l3.2461-3.2461c1.1992-1.1914 1.1992-3.1406 0-4.3281l-3.2461-3.2461c-1.1914-1.1992-3.1367-1.1992-4.3281 0l-3.2422 3.2461c-1.1992 1.1914-1.1992 3.1367 0 4.3281z"/>
  <path fill="white" d="m300.48 320.46h4.5938c1.6953 0 3.0625-1.3672 3.0625-3.0625v-4.5859c0-1.6953-1.3672-3.0625-3.0625-3.0625h-4.5938c-1.6914 0-3.0703 1.3672-3.0703 3.0625v4.5859c0 1.6914 1.3789 3.0625 3.0703 3.0625z"/>
  <path fill="white" d="m300.48 299.02h4.5938c1.6953 0 3.0625-1.3672 3.0625-3.0625l-0.003907-4.5898c0-1.6953-1.3672-3.0625-3.0625-3.0625h-4.5938c-1.6914 0-3.0703 1.3672-3.0703 3.0625v4.5859c0.003906 1.6992 1.3828 3.0664 3.0742 3.0664z"/>
  <path fill="white" d="m294.03 339.23c1.1914 1.1992 3.1367 1.1992 4.3242 0l3.2461-3.2461c1.1992-1.1914 1.1992-3.1367 0-4.3242l-3.2461-3.2539c-1.1914-1.1992-3.1367-1.1992-4.3242 0l-3.2461 3.2422c-1.2031 1.1992-1.2031 3.1484 0 4.3359z"/>
  <path fill="white" d="m352.25 332.59h4.5938c1.6914 0 3.0625-1.3711 3.0625-3.0625v-4.5938c0-1.6914-1.3711-3.0625-3.0625-3.0625h-4.5938c-1.6914 0-3.0625 1.3711-3.0625 3.0625v4.5938c0 1.6875 1.3789 3.0625 3.0625 3.0625z"/>
  <path fill="white" d="m330.81 332.59h4.5938c1.6914 0 3.0625-1.3711 3.0625-3.0625v-4.5938c0-1.6914-1.3711-3.0625-3.0625-3.0625h-4.5938c-1.6914 0-3.0625 1.3711-3.0625 3.0625v4.5938c0 1.6875 1.375 3.0625 3.0625 3.0625z"/>
  <path fill="white" d="m306.31 324.92v4.5938c0 1.6914 1.3711 3.0625 3.0625 3.0625h4.5938c1.6914 0 3.0625-1.3711 3.0625-3.0625v-4.5938c0-1.6914-1.3711-3.0625-3.0625-3.0625h-4.5938c-1.6875 0.007813-3.0625 1.3789-3.0625 3.0625z"/>
  <path fill="white" d="m373.69 332.59h4.5938c1.6914 0 3.0703-1.3711 3.0703-3.0625v-4.5938c0-1.6914-1.3789-3.0625-3.0703-3.0625h-4.5938c-1.6914 0-3.0586 1.3711-3.0586 3.0625v4.5938c0.007813 1.6875 1.375 3.0625 3.0586 3.0625z"/>
  <path fill="white" d="m498.62 152.61-86.816 86.824c-1.0312 1.0234-1.8594 3.0391-1.8594 4.4961v162.69c0 1.457 0.83984 1.8125 1.8828 0.79687l86.773-84.945c1.0469-1.0234 1.8867-3.0234 1.8867-4.4727l-0.003907-164.62c0-1.4492-0.83203-1.8047-1.8633-0.77344z"/>
  </g>
</svg>
