<?xml version="1.0" encoding="UTF-8"?>
<svg width="700pt" height="700pt" version="1.1" viewBox="0 0 700 700" xmlns="http://www.w3.org/2000/svg" xmlns:xlink="http://www.w3.org/1999/xlink">
 <g>
  <path fill="white" d="m184.5 448.57h211.88c1.6953 0 4.0391-0.96875 5.2344-2.1719l114.78-114.78c1.1992-1.1992 2.168-3.5391 2.168-5.2305l0.003906-211.89c0-1.6914-1.3711-3.0625-3.0625-3.0625h-211.89c-1.6953 0-4.0312 0.96875-5.2344 2.168l-114.78 114.79c-1.1992 1.1992-2.1602 3.5391-2.1602 5.2305v211.88c0 1.6875 1.3633 3.0664 3.0625 3.0664zm323.34-126.63c0 1.6953-0.96875 4.0391-2.168 5.2305l-100.92 100.93c-1.1992 1.1992-2.1719 0.79688-2.1719-0.89453v-96.613c0.125-0.33984 0.20312-0.6875 0.20312-1.0625v-4.5938c0-0.375-0.078125-0.72656-0.20312-1.0625v-85.812c0-1.6914 0.97266-4.0391 2.1719-5.2305l100.92-100.92c1.1992-1.1992 2.168-0.79688 2.168 0.89453zm-305.94-96.688 100.93-100.93c1.1992-1.1914 3.5391-2.1602 5.2266-2.1602h189.14c1.6914 0 2.0938 0.96875 0.89453 2.1602l-100.93 100.93c-1.1914 1.1992-3.5352 2.168-5.2266 2.168l-189.14-0.003907c-1.6875-0.003906-2.0938-0.96875-0.89453-2.1641zm-6.6836 12.879h193.59c1.6875 0 3.0625 1.3789 3.0625 3.0625l0.003907 193.59c0 1.6914-1.3789 3.0586-3.0625 3.0586h-193.26l-0.066406-0.078125-3.2461-3.2461-0.085937-0.066406v-193.26c0.003906-1.6797 1.375-3.0625 3.0664-3.0625z"/>
  <path fill="white" d="m248.54 384.7c1.1992 1.1992 3.1406 1.1992 4.3281 0l3.2461-3.2539c1.1992-1.1914 1.1992-3.1367 0-4.3242l-3.2461-3.2461c-1.1914-1.1992-3.1406-1.1992-4.3281 0l-3.2461 3.2461c-1.1992 1.1914-1.1992 3.1367 0 4.3242z"/>
  <path fill="white" d="m300.48 256.14h4.5938c1.6914 0 3.0586-1.3711 3.0586-3.0625v-4.5938c0-1.6953-1.3672-3.0625-3.0586-3.0625h-4.5938c-1.6914 0-3.0625 1.3672-3.0625 3.0625v4.5938c-0.003907 1.6914 1.3711 3.0625 3.0625 3.0625z"/>
  <path fill="white" d="m263.7 369.54c1.1914 1.1992 3.1406 1.1992 4.3281 0l3.2461-3.2461c1.1992-1.1992 1.1992-3.1406 0-4.3281l-3.2539-3.2461c-1.1914-1.1992-3.1367-1.1992-4.3242 0l-3.2461 3.2461c-1.1992 1.1914-1.1992 3.1367 0 4.3242z"/>
  <path fill="white" d="m233.39 399.86c1.1914 1.2031 3.1367 1.2031 4.3242 0l3.2461-3.2461c1.1992-1.1914 1.1992-3.1367 0-4.3242l-3.2461-3.2461c-1.1914-1.1992-3.1367-1.1992-4.3281 0l-3.2461 3.2461c-1.1992 1.1914-1.1992 3.1367 0 4.3242z"/>
  <path fill="white" d="m218.23 415.02c1.1914 1.1992 3.1367 1.1992 4.3242 0l3.2461-3.2539c1.1992-1.1914 1.1992-3.1367 0-4.3242l-3.2461-3.2461c-1.1914-1.1992-3.1406-1.1992-4.3281 0l-3.2461 3.2461c-1.1992 1.1914-1.1992 3.1367 0 4.3242z"/>
  <path fill="white" d="m203.06 430.18c1.1992 1.2031 3.1406 1.2031 4.3281 0l3.2461-3.2461c1.1992-1.1914 1.1992-3.1367 0-4.3242l-3.2461-3.2461c-1.1992-1.1992-3.1367-1.1992-4.3281 0l-3.2422 3.2461c-1.2031 1.1914-1.2031 3.1367 0 4.3242z"/>
  <path fill="white" d="m300.48 320.46h4.5938c1.6914 0 3.0586-1.3672 3.0586-3.0625v-4.5859c0-1.6953-1.3672-3.0625-3.0586-3.0625h-4.5938c-1.6914 0-3.0625 1.3672-3.0625 3.0625v4.5859c-0.003907 1.6914 1.3711 3.0625 3.0625 3.0625z"/>
  <path fill="white" d="m294.02 339.23c1.1914 1.1992 3.1367 1.1992 4.3281 0l3.2461-3.2461c1.1992-1.1914 1.1992-3.1367 0-4.3242l-3.2461-3.2539c-1.1992-1.1992-3.1406-1.1992-4.3281 0l-3.2461 3.2422c-1.1914 1.1992-1.1914 3.1484 0 4.3359z"/>
  <path fill="white" d="m278.86 354.39c1.1914 1.1992 3.1367 1.1992 4.3281 0l3.2461-3.2461c1.1992-1.1914 1.1992-3.1406 0-4.3281l-3.2461-3.2461c-1.1992-1.1992-3.1406-1.1992-4.3281 0l-3.2461 3.2461c-1.1914 1.1914-1.1914 3.1367 0 4.3281z"/>
  <path fill="white" d="m300.48 277.58h4.5938c1.6914 0 3.0586-1.3672 3.0586-3.0625v-4.5859c0-1.6953-1.3672-3.0703-3.0586-3.0703h-4.5938c-1.6914 0-3.0625 1.3711-3.0625 3.0703v4.5859c-0.003907 1.6953 1.3711 3.0625 3.0625 3.0625z"/>
  <path fill="white" d="m300.48 299.02h4.5938c1.6914 0 3.0586-1.3672 3.0586-3.0625l-0.003906-4.5898c0-1.6953-1.3672-3.0625-3.0586-3.0625h-4.5938c-1.6914 0-3.0625 1.3672-3.0625 3.0625v4.5859c0 1.6992 1.375 3.0664 3.0664 3.0664z"/>
  <path fill="white" d="m464.04 321.87h-4.5938c-1.6914 0-3.0625 1.3711-3.0625 3.0625v4.5938c0 1.6914 1.3711 3.0625 3.0625 3.0625h4.5938c1.6914 0 3.0625-1.3711 3.0625-3.0625v-4.5938c0-1.6914-1.3711-3.0625-3.0625-3.0625z"/>
  <path fill="white" d="m421.16 321.87h-4.5859c-1.6953 0-3.0625 1.3711-3.0625 3.0625v4.5938c0 1.6914 1.3672 3.0625 3.0625 3.0625h4.5859c1.6953 0 3.0625-1.3711 3.0625-3.0625v-4.5938c-0.003906-1.6914-1.3711-3.0625-3.0625-3.0625z"/>
  <path fill="white" d="m306.31 324.92v4.5938c0 1.6914 1.3672 3.0625 3.0625 3.0625h4.5938c1.6914 0 3.0625-1.3711 3.0625-3.0625v-4.5938c0-1.6914-1.3711-3.0625-3.0625-3.0625h-4.5938c-1.6953 0.007813-3.0625 1.3789-3.0625 3.0625z"/>
  <path fill="white" d="m442.6 321.87h-4.5938c-1.6953 0-3.0625 1.3711-3.0625 3.0625v4.5938c0 1.6914 1.3672 3.0625 3.0625 3.0625h4.5938c1.6875 0 3.0625-1.3711 3.0625-3.0625v-4.5938c0-1.6914-1.3828-3.0625-3.0625-3.0625z"/>
  <path fill="white" d="m330.81 332.59h4.5938c1.6914 0 3.0625-1.3711 3.0625-3.0625v-4.5938c0-1.6914-1.3711-3.0625-3.0625-3.0625h-4.5938c-1.6953 0-3.0625 1.3711-3.0625 3.0625v4.5938c0 1.6875 1.3672 3.0625 3.0625 3.0625z"/>
  <path fill="white" d="m352.25 332.59h4.5938c1.6914 0 3.0625-1.3711 3.0625-3.0625v-4.5938c0-1.6914-1.3711-3.0625-3.0625-3.0625h-4.5938c-1.6953 0-3.0625 1.3711-3.0625 3.0625v4.5938c0 1.6875 1.3672 3.0625 3.0625 3.0625z"/>
  <path fill="white" d="m373.69 332.59h4.5938c1.6953 0 3.0625-1.3711 3.0625-3.0625v-4.5938c0-1.6914-1.3672-3.0625-3.0625-3.0625h-4.5938c-1.6914 0-3.0625 1.3711-3.0625 3.0625v4.5938c0 1.6875 1.3711 3.0625 3.0625 3.0625z"/>
  <path fill="white" d="m485.48 321.87h-4.5859c-1.6953 0-3.0625 1.3711-3.0625 3.0625v4.5938c0 1.6914 1.3672 3.0625 3.0625 3.0625h4.5859c1.6914 0 3.0625-1.3711 3.0625-3.0625v-4.5938c0-1.6914-1.3711-3.0625-3.0625-3.0625z"/>
  <path fill="white" d="m219.93 221.29h167.13c1.4961 0 3.5625-0.85547 4.6211-1.9102l89.188-89.188c1.0547-1.0586 0.69922-1.9219-0.79688-1.9219l-167.14 0.003907c-1.4961 0-3.5625 0.85547-4.6133 1.9219l-89.18 89.184c-1.0586 1.0469-0.70703 1.9102 0.78906 1.9102z"/>
 </g>
</svg>
