<?xml version="1.0" encoding="UTF-8" standalone="no"?>
<svg
   width="700pt"
   height="700pt"
   version="1.1"
   viewBox="0 0 700 700"
   id="svg6"
   sodipodi:docname="change.svg"
   inkscape:version="1.2.2 (732a01da63, 2022-12-09)"
   xmlns:inkscape="http://www.inkscape.org/namespaces/inkscape"
   xmlns:sodipodi="http://sodipodi.sourceforge.net/DTD/sodipodi-0.dtd"
   xmlns="http://www.w3.org/2000/svg"
   xmlns:svg="http://www.w3.org/2000/svg">
  <defs
     id="defs10" />
  <sodipodi:namedview
     id="namedview8"
     pagecolor="#505050"
     bordercolor="#eeeeee"
     borderopacity="1"
     inkscape:showpageshadow="0"
     inkscape:pageopacity="0"
     inkscape:pagecheckerboard="0"
     inkscape:deskcolor="#505050"
     inkscape:document-units="pt"
     showgrid="false"
     inkscape:zoom="0.88821429"
     inkscape:cx="466.10374"
     inkscape:cy="466.10374"
     inkscape:window-width="2560"
     inkscape:window-height="1369"
     inkscape:window-x="1912"
     inkscape:window-y="-8"
     inkscape:window-maximized="1"
     inkscape:current-layer="g4" />
  <g
     id="g4">
    <path  fill="white"
       d="m 353.43093,220.83283 71.289,52.137 c 1.9609,1.457 4.5938,1.625 6.7773,0.55859 2.1836,-1.1211 3.5273,-3.3594 3.5273,-5.7695 v -19.602 c 52.414,0.78516 71.008,24.414 82.434,59.527 0.89453,2.6875 3.3594,4.4805 6.1602,4.4805 h 0.16797 c 2.8555,-0.11328 5.375,-2.0703 6.1055,-4.8164 9.8008,-37.574 6.9453,-67.199 -8.5117,-88.145 -15.793,-21.391 -44.801,-33.656 -86.352,-36.457 v -19.207 c 0,-2.4648 -1.3438,-4.6484 -3.5273,-5.7695 -2.1836,-1.1211 -4.7617,-0.89453 -6.7773,0.55859 l -71.293,52.035 c -1.6797,1.2305 -2.6328,3.1914 -2.6328,5.207 0,2.0156 0.95312,4.0312 2.6328,5.2617 z m 68.656,-44.629 v 12.602 c 0,3.4727 2.7422,6.3281 6.2148,6.4961 40.77,1.793 68.543,12.434 82.711,31.527 10.137,13.719 13.664,32.535 10.586,56.113 -4.9844,-9.9688 -11.816,-19.938 -21.727,-28.055 -16.238,-13.273 -38.359,-19.77 -67.535,-19.77 -1.2891,0 -2.5195,0 -3.8633,0.0547 -3.5273,0.0547 -6.3828,2.9688 -6.3828,6.4961 v 13.273 l -53.816,-39.367 z m -136.3,304.81 -71.289,-52.137 c -1.9609,-1.457 -4.5938,-1.625 -6.7773,-0.55859 -2.1836,1.1211 -3.5273,3.3594 -3.5273,5.7695 v 19.602 c -52.414,-0.73438 -71.008,-24.367 -82.43,-59.477 -0.89453,-2.7422 -3.4727,-4.5938 -6.3281,-4.4805 -2.8555,0.11328 -5.375,2.0703 -6.1055,4.8164 -9.8008,37.574 -6.9453,67.199 8.5117,88.145 15.793,21.391 44.801,33.656 86.352,36.457 v 19.207 c 0,2.4648 1.3438,4.6484 3.5273,5.7695 0.95312,0.44922 1.9023,0.72656 2.9102,0.72656 1.3438,0 2.6875,-0.44922 3.8086,-1.2305 l 71.289,-52.137 c 1.6797,-1.2305 2.6328,-3.1914 2.6328,-5.207 0.004,-2.0195 -0.89453,-4.0352 -2.5742,-5.2656 z m -68.656,44.629 v -12.602 c 0,-3.4727 -2.7422,-6.3281 -6.2148,-6.4961 -40.77,-1.793 -68.543,-12.434 -82.711,-31.527 -10.137,-13.719 -13.664,-32.535 -10.586,-56.113 4.9844,9.9688 11.816,19.938 21.727,28.055 16.969,13.832 40.32,20.273 71.398,19.711 3.5273,-0.0547 6.3828,-2.9688 6.3828,-6.4961 v -13.273 l 53.816,39.367 z"
       id="path2"
       sodipodi:nodetypes="cccsccsccccssccscccsccccscsccccccsccscccscsccccccscccccsccc" />
    <g
       id="g401"
       transform="matrix(0.63119123,0,0,0.63119123,272.81787,339.67805)">
      <path  fill="white"
         d="m 361.1,79.555 -174.03,89.109 v 218.02 l 174.03,112.88 171.03,-110.43 2.9453,-216.56 z m -17.156,379.32 -137.23,-85.219 v -183.11 l 137.23,87.438 z m -126.29,-287.99 143.45,-70.82 139.56,76.355 -145.77,85.891 z m 294.5,202.77 -143.44,91.426 v -187.1 l 143.44,-87.438 z"
         id="path399" />
    </g>
    <g
       id="g555"
       transform="matrix(0.53286976,0,0,0.53286976,1.2954593,64.033594)"
       style="stroke-width:1.1259787;stroke-dasharray:none">
      <path  fill="white"
         d="m 564.02,138.39 c -0.0977,-0.21875 -0.21875,-0.41016 -0.35156,-0.61328 -0.18359,-0.31641 -0.38672,-0.59375 -0.64844,-0.84766 -0.0781,-0.0781 -0.11328,-0.18359 -0.19141,-0.26172 -0.11328,-0.0859 -0.24609,-0.11328 -0.36719,-0.19141 -0.28906,-0.20312 -0.58594,-0.36719 -0.92578,-0.48828 -0.23437,-0.0859 -0.47266,-0.16797 -0.72656,-0.21094 -0.15625,-0.0273 -0.28125,-0.11328 -0.4375,-0.12109 l -210.73,-17.5 -210,17.5 c -0.15625,0.008 -0.28125,0.0977 -0.4375,0.13281 -0.26172,0.0273 -0.48828,0.0977 -0.73438,0.1875 -0.33984,0.13281 -0.64844,0.28906 -0.94531,0.5 -0.11328,0.0781 -0.25391,0.10547 -0.36719,0.19141 -0.0859,0.0703 -0.12109,0.18359 -0.19141,0.26172 -0.26172,0.25391 -0.46484,0.54297 -0.64844,0.84766 -0.12109,0.21094 -0.25391,0.39453 -0.35156,0.62109 -0.13281,0.33203 -0.18359,0.67187 -0.22656,1.0312 -0.0234,0.19531 -0.12109,0.36719 -0.12109,0.57031 v 175 c 0,1.5586 0.82422,2.9922 2.1719,3.7812 l 210,122.5 c 0.0625,0.0352 0.14062,0.0273 0.20312,0.0625 0.60938,0.3125 1.2656,0.53125 2,0.53125 0.7344,0 1.3906,-0.21875 2.0039,-0.54297 0.0625,-0.0352 0.14062,-0.0273 0.20312,-0.0625 l 210,-122.5 c 1.3359,-0.77734 2.168,-2.2109 2.168,-3.7695 v -175 c 0,-0.19141 -0.0977,-0.36719 -0.12109,-0.55859 -0.0547,-0.36719 -0.0977,-0.71875 -0.23047,-1.0508 z m -39.312,3.0625 -174.71,29.109 -174.75,-29.129 174.39,-14.586 z m -380.34,3.7109 201.25,33.539 v 251.18 l -201.25,-117.39 z m 411.25,167.32 -201.25,117.39 v -251.18 l 201.25,-33.539 z"
         id="path553"
         style="stroke-width:1.1259787;stroke-dasharray:none" />
    </g>
  </g>
</svg>
