<?xml version="1.0" encoding="UTF-8"?>
<svg width="700pt" height="700pt" version="1.1" viewBox="0 0 700 700" xmlns="http://www.w3.org/2000/svg" xmlns:xlink="http://www.w3.org/1999/xlink">
 <g>
  <path fill="white" d="m290.6 269.56-154.26 77.125v73.547l301.07-65.672z"/>
  <path fill="white" d="m369.28 148.31c-20.031 0-36.328 16.301-36.328 36.336 0 20.039 16.297 36.344 36.328 36.344 20.039 0 36.34-16.305 36.34-36.344 0-20.035-16.305-36.336-36.34-36.336z"/>
  <path fill="white" d="m453.96 350.96 98.215-21.426-104.43-59.852-65.371 37.848 68.641 39.738c1.4727 0.85938 2.4648 2.1914 2.9414 3.6914z"/>
  <path fill="white" d="m136.34 465.22c0 15.68 12.758 28.438 28.438 28.438h370.45c15.68 0 28.438-12.758 28.438-28.438l-0.003906-124.77-427.32 93.215z"/>
  <path fill="white" d="m535.22 66.34h-370.45c-15.68 0-28.438 12.758-28.438 28.438v237.23l151.55-75.77c1.9688-0.98828 4.3086-0.91797 6.2227 0.1875l75.168 43.52 75.168-43.52c2.0273-1.168 4.5195-1.1758 6.5508-0.011719l112.66 64.57-0.007812-226.21c0.003906-15.684-12.75-28.438-28.434-28.438zm-165.94 167.77c-27.27 0-49.453-22.191-49.453-49.469 0-27.27 22.188-49.461 49.453-49.461 27.273 0 49.465 22.188 49.465 49.461 0 27.281-22.191 49.469-49.465 49.469z"/>
  </g>
</svg>
