<?xml version="1.0" encoding="UTF-8"?>
<svg width="700pt" height="700pt" version="1.1" viewBox="0 0 700 700" xmlns="http://www.w3.org/2000/svg" xmlns:xlink="http://www.w3.org/1999/xlink">
 <g>
  <path fill="white" d="m572.14 289.57c-22.473 40.391-55.078 73.125-93.59 95.723l-47.031-47.016c11.805-16.43 18.719-36.559 18.719-58.273 0-55.258-44.945-100.22-100.2-100.22-21.758 0-41.848 6.9492-58.297 18.73l-39.223-39.242c30.402-12.668 63.484-19.5 97.523-19.5 92.098 0 177.22 50.066 222.11 130.67 3.5078 6.2539 3.5078 12.871-0.007812 19.129zm35.469-8.4102v-2.3047c-0.19141-8.3281-2.4336-16.629-6.7344-24.391-50.727-91.008-146.82-147.54-250.84-147.54-43.039 0-84.707 9.6797-122.38 27.461l-26.348-26.328c-6.4375-6.4141-16.809-6.4141-23.25 0-6.3789 6.4141-6.3789 16.809 0 23.223l19.551 19.539c-40.297 25.273-74.453 60.598-98.418 103.64-9.0625 16.238-9.0625 34.855 0 51.078 50.668 91.008 146.76 147.55 250.84 147.55 43.039 0 84.707-9.6875 122.38-27.473l26.348 26.348c3.1602 3.2031 7.3906 4.7969 11.562 4.7969 4.2344 0 8.4062-1.5977 11.625-4.7969 6.4375-6.4219 6.4375-16.809 0-23.23l-19.492-19.539c40.297-25.281 74.453-60.613 98.418-103.65 4.3047-7.7539 6.5469-16.055 6.7383-24.379zm-223 56.648-92.398-92.383c-6.082 10.117-9.5977 21.949-9.5977 34.578 0 37.156 30.223 67.379 67.418 67.379 12.641 0 24.441-3.5 34.578-9.5742zm23.188-23.227c6.082-10.109 9.5977-21.941 9.5977-34.578 0-37.156-30.223-67.379-67.359-67.379-12.637 0-24.5 3.4922-34.574 9.5742zm-57.762 105.67c33.977 0 67.062-6.8359 97.523-19.512l-39.285-39.234c-16.395 11.785-36.539 18.719-58.238 18.719-55.258 0-100.27-44.945-100.27-100.21 0-21.711 6.9727-41.836 18.777-58.27l-47.031-47.02c-38.566 22.598-71.113 55.324-93.648 95.727-3.457 6.2539-3.457 12.871 0 19.129 44.887 80.602 130.01 130.68 222.17 130.68z" fill-rule="evenodd"/>
 </g>
</svg>
