<?xml version="1.0" encoding="UTF-8"?>
<svg width="700pt" height="700pt" version="1.1" viewBox="0 0 700 700" xmlns="http://www.w3.org/2000/svg" xmlns:xlink="http://www.w3.org/1999/xlink">
 <g>
  <path fill="white" d="m572.14 289.56c-44.887 80.605-130.01 130.68-222.11 130.68-92.156 0-177.28-50.074-222.17-130.68-3.457-6.2578-3.457-12.875 0-19.129 44.887-80.605 130.01-130.67 222.17-130.67 92.098 0 177.22 50.066 222.11 130.67 3.5195 6.2539 3.5195 12.871 0 19.129zm28.672-35.109c-50.668-91.008-146.76-147.54-250.78-147.54-104.08 0-200.17 56.527-250.84 147.54-9.0625 16.238-9.0625 34.855 0 51.078 50.668 91.008 146.76 147.55 250.84 147.55 104.02 0 200.11-56.539 250.78-147.55 9.0586-16.223 9.0586-34.84-0.003906-51.078zm-250.78 92.922c37.137 0 67.359-30.223 67.359-67.379s-30.223-67.379-67.359-67.379c-37.195 0-67.418 30.223-67.418 67.379-0.003906 37.156 30.219 67.379 67.418 67.379zm0-167.6c-55.316 0-100.27 44.965-100.27 100.22 0 55.27 44.945 100.22 100.27 100.22 55.258 0 100.2-44.945 100.2-100.22 0-55.258-44.945-100.22-100.2-100.22z" fill-rule="evenodd"/>
 </g>
</svg>
